<svg width="436" height="216" viewBox="0 0 436 216" fill="none" xmlns="http://www.w3.org/2000/svg">
<path d="M338.909 215.424C304.682 215.424 279.947 182.924 279.947 141.219C279.947 98.6522 309.572 64.4259 347.537 64.4259C364.794 64.4259 376.874 72.1916 384.927 81.6829V33.9386C384.927 19.8455 379.462 14.956 366.232 14.956V11.217C381.476 10.0665 398.733 6.90278 413.401 0L416.277 1.43807V185.512C416.277 198.743 422.317 201.619 435.26 201.331V205.07C421.167 206.796 402.759 210.247 388.091 215.999L384.927 214.274V184.362C380.325 197.592 363.931 215.424 338.909 215.424ZM312.736 130.578C312.736 174.87 332.581 197.88 355.303 197.88C369.683 197.88 380.325 188.676 384.927 175.446V129.427C384.927 98.6522 372.272 69.8906 349.838 69.8906C327.404 69.8906 312.736 96.0637 312.736 130.578Z" fill="white"/>
<path d="M191.673 215.712C164.924 215.712 144.791 194.141 144.791 158.189V98.0773C144.791 83.9842 139.039 79.3823 125.809 79.0947V75.3557C141.052 74.2052 158.309 71.0415 173.265 64.1387L175.854 65.5767V155.025C175.854 180.335 185.345 197.88 205.766 197.88C224.461 197.88 233.089 181.486 234.527 167.68V98.0773C234.527 83.9842 228.775 79.3823 215.545 79.0947V75.3557C231.076 74.2052 248.333 71.0415 263.001 64.1387L265.59 65.5767V185.513C265.59 198.743 271.917 201.619 284.86 201.331V205.07C270.767 206.796 252.36 210.247 237.404 216L234.527 214.274V181.486C229.35 197.305 215.545 215.712 191.673 215.712Z" fill="white"/>
<path d="M117.06 214.849C100.378 214.849 91.7494 203.057 89.4485 184.937L88.5857 178.61C85.1343 196.73 67.8773 215.425 41.4167 215.425C16.9693 215.425 0 199.606 0 178.322C0 159.052 13.8056 145.246 39.4034 142.945L83.121 139.494L81.1077 124.826C77.6563 98.6526 65.864 81.3956 44.0052 81.3956C27.0359 81.3956 14.3808 92.0374 8.05321 107.281L4.31424 106.418C9.77894 85.9975 30.4873 63.8511 59.8241 63.8511C88.8733 63.8511 107.281 82.8337 111.595 117.06L119.936 180.623C121.661 192.991 126.551 196.73 131.44 196.73C135.467 196.73 138.343 193.278 139.206 188.389L142.657 188.676C142.082 201.044 133.166 214.849 117.06 214.849ZM29.0492 171.995C29.0492 185.8 39.1157 198.455 56.6603 198.455C75.0677 198.455 86.2847 185.225 87.7228 171.995L83.6962 143.808L55.5098 146.109C37.9653 147.835 29.0492 158.189 29.0492 171.995Z" fill="white"/>
</svg>
