<svg width="61" height="31" viewBox="0 0 61 31" fill="none" xmlns="http://www.w3.org/2000/svg">
<path d="M47.1229 29.9529C42.364 29.9529 38.9248 25.434 38.9248 19.6354C38.9248 13.7168 43.0438 8.95788 48.3226 8.95788C50.722 8.95788 52.4016 10.0376 53.5214 11.3573V4.71888C53.5214 2.75935 52.7615 2.07951 50.922 2.07951V1.55963C53.0415 1.39967 55.4409 0.959773 57.4804 0L57.8803 0.199951V25.7939C57.8803 27.6335 58.7201 28.0334 60.5197 27.9934V28.5133C58.5602 28.7532 56.0008 29.2331 53.9613 30.0329L53.5214 29.793V25.6339C52.8815 27.4735 50.6021 29.9529 47.1229 29.9529ZM43.4837 18.1557C43.4837 24.3143 46.2431 27.5135 49.4023 27.5135C51.4019 27.5135 52.8815 26.2338 53.5214 24.3942V17.9958C53.5214 13.7168 51.7618 9.71771 48.6425 9.71771C45.5232 9.71771 43.4837 13.3568 43.4837 18.1557Z" fill="black"/>
<path d="M26.651 29.993C22.9319 29.993 20.1325 26.9937 20.1325 21.9949V13.6369C20.1325 11.6773 19.3327 11.0375 17.4932 10.9975V10.4776C19.6127 10.3176 22.0121 9.87774 24.0916 8.91797L24.4515 9.11792V21.555C24.4515 25.0742 25.7712 27.5136 28.6105 27.5136C31.2099 27.5136 32.4096 25.2341 32.6096 23.3146V13.6369C32.6096 11.6773 31.8098 11.0375 29.9702 10.9975V10.4776C32.1297 10.3176 34.5291 9.87774 36.5687 8.91797L36.9286 9.11792V25.794C36.9286 27.6336 37.8084 28.0335 39.6079 27.9935V28.5133C37.6484 28.7533 35.089 29.2332 33.0095 30.033L32.6096 29.793V25.2341C31.8898 27.4336 29.9702 29.993 26.651 29.993Z" fill="black"/>
<path d="M16.2762 29.873C13.9567 29.873 12.757 28.2334 12.4371 25.714L12.3171 24.8342C11.8372 27.3536 9.43777 29.953 5.75864 29.953C2.35944 29.953 0 27.7535 0 24.7942C0 22.1148 1.91955 20.1953 5.47871 19.8753L11.5573 19.3954L11.2773 17.3559C10.7975 13.7168 9.15783 11.3174 6.11855 11.3174C3.75911 11.3174 1.99952 12.797 1.11973 14.9165L0.599859 14.7965C1.35968 11.9572 4.239 8.87793 8.31804 8.87793C12.3571 8.87793 14.9165 11.5173 15.5163 16.2762L16.6761 25.1141C16.916 26.8337 17.5958 27.3536 18.2757 27.3536C18.8356 27.3536 19.2355 26.8737 19.3554 26.1938L19.8353 26.2338C19.7553 27.9534 18.5156 29.873 16.2762 29.873ZM4.03904 23.9144C4.03904 25.8339 5.43871 27.5935 7.87814 27.5935C10.4375 27.5935 11.9972 25.7539 12.1971 23.9144L11.6373 19.9953L7.71818 20.3152C5.27875 20.5552 4.03904 21.9948 4.03904 23.9144Z" fill="black"/>
</svg>
