<?xml version="1.0" encoding="UTF-8"?>
<svg id="Layer_1" xmlns="http://www.w3.org/2000/svg" version="1.1" viewBox="0 0 162.03 82.61">
  <!-- Generator: Adobe Illustrator 29.8.3, SVG Export Plug-In . SVG Version: 2.1.1 Build 3)  -->
  <defs>
    <style>
      .st0 {
        fill: #fff;
      }
    </style>
  </defs>
  <path class="st0" d="M34.21,70.73l-.33-2.42c-1.32,6.93-7.92,14.08-18.04,14.08-9.35,0-15.84-6.05-15.84-14.19,0-7.37,5.28-12.65,15.07-13.53l16.72-1.32-.77-5.61c-1.32-10.01-5.83-16.61-14.19-16.61-6.49,0-11.33,4.07-13.75,9.9l-1.43-.33c2.09-7.81,10.01-16.28,21.23-16.28s18.15,7.26,19.8,20.35l3.19,24.31c.66,4.73,2.53,6.16,4.4,6.16,1.54,0,2.64-1.32,2.97-3.19l1.32.11c-.22,4.73-3.63,10.01-9.79,10.01s-9.68-4.51-10.56-11.44ZM21.67,75.9c7.04,0,11.33-5.06,11.88-10.12l-1.54-10.78-10.78.88c-6.71.66-10.12,4.62-10.12,9.9s3.85,10.12,10.56,10.12Z"/>
  <path class="st0" d="M53.13,60.5v-22.99c0-5.39-2.2-7.15-7.26-7.26v-1.43c5.83-.44,12.43-1.65,18.15-4.29l.99.55v34.21c0,9.68,3.63,16.39,11.44,16.39,7.15,0,10.45-6.27,11-11.55v-26.62c0-5.39-2.2-7.15-7.26-7.26v-1.43c5.94-.44,12.54-1.65,18.15-4.29l.99.55v45.87c0,5.06,2.42,6.16,7.37,6.05v1.43c-5.39.66-12.43,1.98-18.15,4.18l-1.1-.66v-12.54c-1.98,6.05-7.26,13.09-16.39,13.09-10.23,0-17.93-8.25-17.93-22Z"/>
  <path class="st0" d="M102.63,54.01c0-16.28,11.33-29.37,25.85-29.37,6.6,0,11.22,2.97,14.3,6.6V12.98c0-5.39-2.09-7.26-7.15-7.26v-1.43c5.83-.44,12.43-1.65,18.04-4.29l1.1.55v70.4c0,5.06,2.31,6.16,7.26,6.05v1.43c-5.39.66-12.43,1.98-18.04,4.18l-1.21-.66v-11.44c-1.76,5.06-8.03,11.88-17.6,11.88-13.09,0-22.55-12.43-22.55-28.38ZM131.45,75.68c5.5,0,9.57-3.52,11.33-8.58v-17.6c0-11.77-4.84-22.77-13.42-22.77s-14.19,10.01-14.19,23.21c0,16.94,7.59,25.74,16.28,25.74Z"/>
</svg>