<svg width="1280" height="636" viewBox="0 0 1280 636" fill="none" xmlns="http://www.w3.org/2000/svg">
<path d="M996.653 633.514C896.001 633.514 823.261 537.937 823.261 415.294C823.261 290.114 910.38 189.462 1022.03 189.462C1072.78 189.462 1108.3 212.299 1131.98 240.211V99.8058C1131.98 58.361 1115.91 43.9822 1077.01 43.9822V32.9867C1121.83 29.6034 1172.58 20.2995 1215.72 0L1224.18 4.22903V545.549C1224.18 584.457 1241.94 592.915 1280 592.069V603.064C1238.56 608.139 1184.42 618.289 1141.29 635.205L1131.98 630.13V542.166C1118.45 581.073 1070.24 633.514 996.653 633.514ZM919.684 383.999C919.684 514.254 978.045 581.919 1044.86 581.919C1087.15 581.919 1118.45 554.853 1131.98 515.946V380.616C1131.98 290.114 1094.77 205.532 1028.79 205.532C962.82 205.532 919.684 282.501 919.684 383.999Z" fill="#999999" fill-opacity="0.1"/>
<path d="M563.667 634.36C485.006 634.36 425.8 570.924 425.8 465.198V288.423C425.8 246.978 408.883 233.445 369.976 232.599V221.604C414.804 218.221 465.553 208.917 509.535 188.617L517.147 192.846V455.894C517.147 530.325 545.059 581.92 605.112 581.92C660.09 581.92 685.464 533.709 689.693 493.11V288.423C689.693 246.978 672.777 233.445 633.87 232.599V221.604C679.544 218.221 730.292 208.917 773.429 188.617L781.041 192.846V545.55C781.041 584.457 799.649 592.916 837.71 592.07V603.065C796.266 608.14 742.134 618.29 698.151 635.206L689.693 630.131V533.709C674.469 580.228 633.869 634.36 563.667 634.36Z" fill="#999999" fill-opacity="0.1"/>
<path d="M344.246 631.823C295.189 631.823 269.814 597.145 263.048 543.859L260.51 525.251C250.36 578.537 199.612 633.515 121.797 633.515C49.9029 633.515 0 586.995 0 524.405C0 467.735 40.599 427.136 115.876 420.37L244.44 410.22L238.519 367.084C228.369 290.115 193.691 239.366 129.409 239.366C79.5063 239.366 42.2905 270.661 23.6826 315.489L12.6872 312.952C28.7577 252.899 89.6561 187.771 175.929 187.771C261.356 187.771 315.488 243.595 328.175 344.247L352.704 531.171C357.779 567.541 372.157 578.537 386.536 578.537C398.378 578.537 406.836 568.387 409.373 554.008L419.523 554.854C417.831 591.224 391.611 631.823 344.246 631.823ZM85.4269 505.797C85.4269 546.396 115.03 583.612 166.625 583.612C220.757 583.612 253.744 544.704 257.973 505.797L246.131 422.907L163.242 429.674C111.647 434.749 85.4269 465.198 85.4269 505.797Z" fill="#999999" fill-opacity="0.1"/>
</svg>
